<mxfile host="app.diagrams.net" modified="2023-04-26T08:54:24.262Z" agent="Mozilla/5.0 (X11; Ubuntu; Linux x86_64; rv:109.0) Gecko/20100101 Firefox/112.0" etag="mE_enpBN-Wn0zZme6X9s" version="21.2.1" type="device">
  <diagram name="Page-1" id="DQ0Wa1Lc7SJRi_38_ZZH">
    <mxGraphModel dx="2284" dy="840" grid="1" gridSize="10" guides="1" tooltips="1" connect="1" arrows="1" fold="1" page="1" pageScale="1" pageWidth="850" pageHeight="1100" math="0" shadow="0">
      <root>
        <mxCell id="0" />
        <mxCell id="1" parent="0" />
        <mxCell id="n8vh_pPtW3KvM1zn7kkg-50" value="&lt;div&gt;Participant&lt;/div&gt;&lt;div&gt;&lt;br&gt;&lt;/div&gt;&lt;div&gt;&lt;br&gt;&lt;/div&gt;&lt;div&gt;&lt;br&gt;&lt;/div&gt;&lt;br&gt;&lt;div&gt;&lt;br&gt;&lt;/div&gt;&lt;div&gt;&lt;br&gt;&lt;/div&gt;&lt;div&gt;&lt;br&gt;&lt;/div&gt;&lt;div&gt;&lt;br&gt;&lt;/div&gt;&lt;div&gt;&lt;br&gt;&lt;/div&gt;&lt;div&gt;&lt;br&gt;&lt;/div&gt;&lt;div&gt;&lt;br&gt;&lt;/div&gt;&lt;div&gt;&lt;br&gt;&lt;/div&gt;&lt;div&gt;&lt;br&gt;&lt;/div&gt;&lt;div&gt;&lt;br&gt;&lt;/div&gt;&lt;div&gt;&lt;br&gt;&lt;/div&gt;&lt;div&gt;&lt;br&gt;&lt;/div&gt;&lt;div&gt;&lt;br&gt;&lt;/div&gt;&lt;div&gt;&lt;br&gt;&lt;/div&gt;" style="rounded=0;whiteSpace=wrap;html=1;" vertex="1" parent="1">
          <mxGeometry x="-520" y="420" width="330" height="290" as="geometry" />
        </mxCell>
        <mxCell id="n8vh_pPtW3KvM1zn7kkg-51" value="&lt;div&gt;VC-Issuer&lt;/div&gt;&lt;div&gt;(Keycloak)&lt;br&gt;&lt;/div&gt;" style="rounded=1;whiteSpace=wrap;html=1;" vertex="1" parent="1">
          <mxGeometry x="-260" y="470" width="120" height="60" as="geometry" />
        </mxCell>
        <mxCell id="n8vh_pPtW3KvM1zn7kkg-52" value="" style="group" vertex="1" connectable="0" parent="1">
          <mxGeometry x="13.110000000000014" y="80" width="826.89" height="610" as="geometry" />
        </mxCell>
        <mxCell id="n8vh_pPtW3KvM1zn7kkg-1" value="&lt;div&gt;OnBoarding-Service&lt;/div&gt;&lt;div&gt;&lt;br&gt;&lt;/div&gt;&lt;div&gt;&lt;br&gt;&lt;/div&gt;&lt;div&gt;&lt;br&gt;&lt;/div&gt;&lt;div&gt;&lt;br&gt;&lt;/div&gt;&lt;div&gt;&lt;br&gt;&lt;/div&gt;&lt;div&gt;&lt;br&gt;&lt;/div&gt;&lt;div&gt;&lt;br&gt;&lt;/div&gt;&lt;div&gt;&lt;br&gt;&lt;/div&gt;&lt;div&gt;&lt;br&gt;&lt;/div&gt;&lt;div&gt;&lt;br&gt;&lt;/div&gt;&lt;div&gt;&lt;br&gt;&lt;/div&gt;&lt;div&gt;&lt;br&gt;&lt;/div&gt;&lt;div&gt;&lt;br&gt;&lt;/div&gt;&lt;div&gt;&lt;br&gt;&lt;/div&gt;&lt;div&gt;&lt;br&gt;&lt;/div&gt;&lt;div&gt;&lt;br&gt;&lt;/div&gt;&lt;div&gt;&lt;br&gt;&lt;/div&gt;&lt;div&gt;&lt;br&gt;&lt;/div&gt;&lt;div&gt;&lt;br&gt;&lt;/div&gt;&lt;div&gt;&lt;br&gt;&lt;/div&gt;&lt;div&gt;&lt;br&gt;&lt;/div&gt;&lt;div&gt;&lt;br&gt;&lt;/div&gt;&lt;div&gt;&lt;br&gt;&lt;/div&gt;&lt;div&gt;&lt;br&gt;&lt;/div&gt;&lt;div&gt;&lt;br&gt;&lt;/div&gt;&lt;div&gt;&lt;br&gt;&lt;/div&gt;&lt;div&gt;&lt;br&gt;&lt;/div&gt;&lt;div&gt;&lt;br&gt;&lt;/div&gt;&lt;div&gt;&lt;br&gt;&lt;/div&gt;&lt;div&gt;&lt;br&gt;&lt;/div&gt;&lt;div&gt;&lt;br&gt;&lt;/div&gt;&lt;div&gt;&lt;br&gt;&lt;/div&gt;&lt;div&gt;&lt;br&gt;&lt;/div&gt;" style="rounded=0;whiteSpace=wrap;html=1;" vertex="1" parent="n8vh_pPtW3KvM1zn7kkg-52">
          <mxGeometry x="266.89" width="505" height="510" as="geometry" />
        </mxCell>
        <mxCell id="n8vh_pPtW3KvM1zn7kkg-2" value="Orion-LD" style="rounded=1;whiteSpace=wrap;html=1;" vertex="1" parent="n8vh_pPtW3KvM1zn7kkg-52">
          <mxGeometry x="476.89" y="40" width="120" height="60" as="geometry" />
        </mxCell>
        <mxCell id="n8vh_pPtW3KvM1zn7kkg-3" value="&lt;div&gt;PEP-Proxy&lt;/div&gt;&lt;div&gt;(Kong)&lt;br&gt;&lt;/div&gt;" style="rounded=1;whiteSpace=wrap;html=1;" vertex="1" parent="n8vh_pPtW3KvM1zn7kkg-52">
          <mxGeometry x="206.89" y="150" width="120" height="60" as="geometry" />
        </mxCell>
        <mxCell id="n8vh_pPtW3KvM1zn7kkg-4" value="DSBA-PDP" style="rounded=1;whiteSpace=wrap;html=1;" vertex="1" parent="n8vh_pPtW3KvM1zn7kkg-52">
          <mxGeometry x="476.89" y="150" width="120" height="60" as="geometry" />
        </mxCell>
        <mxCell id="n8vh_pPtW3KvM1zn7kkg-5" value="&lt;div&gt;PAP - AuthorizationRegistry&lt;/div&gt;&lt;div&gt;(Keyrock)&lt;br&gt;&lt;/div&gt;" style="rounded=1;whiteSpace=wrap;html=1;" vertex="1" parent="n8vh_pPtW3KvM1zn7kkg-52">
          <mxGeometry x="636.89" y="150" width="120" height="60" as="geometry" />
        </mxCell>
        <mxCell id="n8vh_pPtW3KvM1zn7kkg-6" value="OnBoarding-Portal" style="rounded=1;whiteSpace=wrap;html=1;" vertex="1" parent="n8vh_pPtW3KvM1zn7kkg-52">
          <mxGeometry x="206.89" y="270" width="120" height="60" as="geometry" />
        </mxCell>
        <mxCell id="n8vh_pPtW3KvM1zn7kkg-7" value="TIR-API" style="rounded=1;whiteSpace=wrap;html=1;strokeColor=#FF1900;dashed=1;" vertex="1" parent="n8vh_pPtW3KvM1zn7kkg-52">
          <mxGeometry x="706.89" y="40" width="120" height="60" as="geometry" />
        </mxCell>
        <mxCell id="n8vh_pPtW3KvM1zn7kkg-8" value="Verifier" style="rounded=1;whiteSpace=wrap;html=1;" vertex="1" parent="n8vh_pPtW3KvM1zn7kkg-52">
          <mxGeometry x="476.89" y="270" width="120" height="60" as="geometry" />
        </mxCell>
        <mxCell id="n8vh_pPtW3KvM1zn7kkg-9" value="Walt-Id" style="rounded=1;whiteSpace=wrap;html=1;" vertex="1" parent="n8vh_pPtW3KvM1zn7kkg-52">
          <mxGeometry x="626.89" y="360" width="120" height="60" as="geometry" />
        </mxCell>
        <mxCell id="n8vh_pPtW3KvM1zn7kkg-10" value="MongoDB" style="shape=cylinder3;whiteSpace=wrap;html=1;boundedLbl=1;backgroundOutline=1;size=15;" vertex="1" parent="n8vh_pPtW3KvM1zn7kkg-52">
          <mxGeometry x="346.89" y="30" width="60" height="80" as="geometry" />
        </mxCell>
        <mxCell id="n8vh_pPtW3KvM1zn7kkg-11" value="" style="endArrow=classic;startArrow=classic;html=1;rounded=0;entryX=0;entryY=0.5;entryDx=0;entryDy=0;exitX=1;exitY=0.5;exitDx=0;exitDy=0;exitPerimeter=0;" edge="1" parent="n8vh_pPtW3KvM1zn7kkg-52" source="n8vh_pPtW3KvM1zn7kkg-10" target="n8vh_pPtW3KvM1zn7kkg-2">
          <mxGeometry width="50" height="50" relative="1" as="geometry">
            <mxPoint x="36.889999999999986" y="170" as="sourcePoint" />
            <mxPoint x="86.88999999999999" y="120" as="targetPoint" />
          </mxGeometry>
        </mxCell>
        <mxCell id="n8vh_pPtW3KvM1zn7kkg-13" value="Login-Page" style="swimlane;whiteSpace=wrap;html=1;fillStyle=solid;fillColor=default;" vertex="1" parent="n8vh_pPtW3KvM1zn7kkg-52">
          <mxGeometry x="216.89" y="370" width="100" height="100" as="geometry" />
        </mxCell>
        <mxCell id="n8vh_pPtW3KvM1zn7kkg-14" value="" style="shape=image;html=1;verticalAlign=top;verticalLabelPosition=bottom;labelBackgroundColor=#ffffff;imageAspect=0;aspect=fixed;image=https://cdn1.iconfinder.com/data/icons/ionicons-sharp-vol-2/512/qr-code-sharp-128.png" vertex="1" parent="n8vh_pPtW3KvM1zn7kkg-13">
          <mxGeometry x="15" y="30" width="70" height="70" as="geometry" />
        </mxCell>
        <mxCell id="n8vh_pPtW3KvM1zn7kkg-16" value="" style="endArrow=classic;html=1;rounded=0;exitX=1;exitY=0.5;exitDx=0;exitDy=0;entryX=0;entryY=0.5;entryDx=0;entryDy=0;" edge="1" parent="n8vh_pPtW3KvM1zn7kkg-52" source="n8vh_pPtW3KvM1zn7kkg-6" target="n8vh_pPtW3KvM1zn7kkg-8">
          <mxGeometry width="50" height="50" relative="1" as="geometry">
            <mxPoint x="96.88999999999999" y="400" as="sourcePoint" />
            <mxPoint x="146.89" y="350" as="targetPoint" />
          </mxGeometry>
        </mxCell>
        <mxCell id="n8vh_pPtW3KvM1zn7kkg-19" value="&amp;lt;Initiate SIOP-2 Flow&amp;gt;" style="edgeLabel;html=1;align=center;verticalAlign=middle;resizable=0;points=[];" vertex="1" connectable="0" parent="n8vh_pPtW3KvM1zn7kkg-16">
          <mxGeometry x="-0.24" y="2" relative="1" as="geometry">
            <mxPoint x="12" y="12" as="offset" />
          </mxGeometry>
        </mxCell>
        <mxCell id="n8vh_pPtW3KvM1zn7kkg-17" value="" style="endArrow=classic;html=1;rounded=0;exitX=0.5;exitY=1;exitDx=0;exitDy=0;entryX=1;entryY=0.5;entryDx=0;entryDy=0;" edge="1" parent="n8vh_pPtW3KvM1zn7kkg-52" source="n8vh_pPtW3KvM1zn7kkg-8" target="n8vh_pPtW3KvM1zn7kkg-13">
          <mxGeometry width="50" height="50" relative="1" as="geometry">
            <mxPoint x="6.889999999999986" y="400" as="sourcePoint" />
            <mxPoint x="56.889999999999986" y="350" as="targetPoint" />
            <Array as="points">
              <mxPoint x="536.89" y="420" />
            </Array>
          </mxGeometry>
        </mxCell>
        <mxCell id="n8vh_pPtW3KvM1zn7kkg-18" value="&amp;lt;Presents QR&amp;gt;" style="edgeLabel;html=1;align=center;verticalAlign=middle;resizable=0;points=[];" vertex="1" connectable="0" parent="n8vh_pPtW3KvM1zn7kkg-17">
          <mxGeometry x="0.3" y="2" relative="1" as="geometry">
            <mxPoint as="offset" />
          </mxGeometry>
        </mxCell>
        <mxCell id="n8vh_pPtW3KvM1zn7kkg-22" value="&amp;lt;request backend&amp;gt;" style="endArrow=classic;html=1;rounded=0;entryX=0.25;entryY=1;entryDx=0;entryDy=0;exitX=0.25;exitY=0;exitDx=0;exitDy=0;" edge="1" parent="n8vh_pPtW3KvM1zn7kkg-52" source="n8vh_pPtW3KvM1zn7kkg-6" target="n8vh_pPtW3KvM1zn7kkg-3">
          <mxGeometry width="50" height="50" relative="1" as="geometry">
            <mxPoint x="66.88999999999999" y="310" as="sourcePoint" />
            <mxPoint x="116.88999999999999" y="260" as="targetPoint" />
            <Array as="points">
              <mxPoint x="236.89" y="240" />
            </Array>
          </mxGeometry>
        </mxCell>
        <mxCell id="n8vh_pPtW3KvM1zn7kkg-25" value="did.json" style="shape=document;whiteSpace=wrap;html=1;boundedLbl=1;" vertex="1" parent="n8vh_pPtW3KvM1zn7kkg-52">
          <mxGeometry x="746.89" y="445" width="80" height="50" as="geometry" />
        </mxCell>
        <mxCell id="n8vh_pPtW3KvM1zn7kkg-26" value="&amp;lt;publish&amp;gt;" style="endArrow=classic;html=1;rounded=0;exitX=0.5;exitY=1;exitDx=0;exitDy=0;entryX=0;entryY=0.5;entryDx=0;entryDy=0;entryPerimeter=0;" edge="1" parent="n8vh_pPtW3KvM1zn7kkg-52" source="n8vh_pPtW3KvM1zn7kkg-9" target="n8vh_pPtW3KvM1zn7kkg-25">
          <mxGeometry width="50" height="50" relative="1" as="geometry">
            <mxPoint x="416.89" y="630" as="sourcePoint" />
            <mxPoint x="466.89" y="580" as="targetPoint" />
            <Array as="points">
              <mxPoint x="686.89" y="470" />
            </Array>
          </mxGeometry>
        </mxCell>
        <mxCell id="n8vh_pPtW3KvM1zn7kkg-27" value="&amp;lt;verify VCs&amp;gt;" style="endArrow=classic;html=1;rounded=0;exitX=1;exitY=0.5;exitDx=0;exitDy=0;entryX=0.5;entryY=0;entryDx=0;entryDy=0;" edge="1" parent="n8vh_pPtW3KvM1zn7kkg-52" source="n8vh_pPtW3KvM1zn7kkg-8" target="n8vh_pPtW3KvM1zn7kkg-9">
          <mxGeometry width="50" height="50" relative="1" as="geometry">
            <mxPoint x="646.89" y="310" as="sourcePoint" />
            <mxPoint x="696.89" y="260" as="targetPoint" />
            <Array as="points">
              <mxPoint x="686.89" y="300" />
            </Array>
          </mxGeometry>
        </mxCell>
        <mxCell id="n8vh_pPtW3KvM1zn7kkg-28" value="" style="endArrow=classic;html=1;rounded=0;exitX=1;exitY=0.5;exitDx=0;exitDy=0;entryX=0;entryY=0.5;entryDx=0;entryDy=0;" edge="1" parent="n8vh_pPtW3KvM1zn7kkg-52" source="n8vh_pPtW3KvM1zn7kkg-3" target="n8vh_pPtW3KvM1zn7kkg-4">
          <mxGeometry width="50" height="50" relative="1" as="geometry">
            <mxPoint x="386.89" y="210" as="sourcePoint" />
            <mxPoint x="436.89" y="160" as="targetPoint" />
          </mxGeometry>
        </mxCell>
        <mxCell id="n8vh_pPtW3KvM1zn7kkg-29" value="&amp;lt;request authz decision&amp;gt;" style="edgeLabel;html=1;align=center;verticalAlign=middle;resizable=0;points=[];" vertex="1" connectable="0" parent="n8vh_pPtW3KvM1zn7kkg-28">
          <mxGeometry x="-0.2286" relative="1" as="geometry">
            <mxPoint x="12" as="offset" />
          </mxGeometry>
        </mxCell>
        <mxCell id="n8vh_pPtW3KvM1zn7kkg-30" value="" style="endArrow=classic;html=1;rounded=0;entryX=0;entryY=0.5;entryDx=0;entryDy=0;exitX=1;exitY=0.5;exitDx=0;exitDy=0;" edge="1" parent="n8vh_pPtW3KvM1zn7kkg-52" source="n8vh_pPtW3KvM1zn7kkg-4" target="n8vh_pPtW3KvM1zn7kkg-5">
          <mxGeometry width="50" height="50" relative="1" as="geometry">
            <mxPoint x="526.89" y="290" as="sourcePoint" />
            <mxPoint x="576.89" y="240" as="targetPoint" />
          </mxGeometry>
        </mxCell>
        <mxCell id="n8vh_pPtW3KvM1zn7kkg-31" value="" style="endArrow=classic;html=1;rounded=0;exitX=0.75;exitY=0;exitDx=0;exitDy=0;entryX=0.5;entryY=1;entryDx=0;entryDy=0;" edge="1" parent="n8vh_pPtW3KvM1zn7kkg-52" source="n8vh_pPtW3KvM1zn7kkg-3" target="n8vh_pPtW3KvM1zn7kkg-2">
          <mxGeometry width="50" height="50" relative="1" as="geometry">
            <mxPoint x="56.889999999999986" y="180" as="sourcePoint" />
            <mxPoint x="106.88999999999999" y="130" as="targetPoint" />
            <Array as="points">
              <mxPoint x="296.89" y="130" />
              <mxPoint x="536.89" y="130" />
            </Array>
          </mxGeometry>
        </mxCell>
        <mxCell id="n8vh_pPtW3KvM1zn7kkg-32" value="&amp;lt;forward authorized requests&amp;gt;" style="edgeLabel;html=1;align=center;verticalAlign=middle;resizable=0;points=[];" vertex="1" connectable="0" parent="n8vh_pPtW3KvM1zn7kkg-31">
          <mxGeometry x="0.1127" y="-1" relative="1" as="geometry">
            <mxPoint as="offset" />
          </mxGeometry>
        </mxCell>
        <mxCell id="n8vh_pPtW3KvM1zn7kkg-33" value="Gaia-X Registry" style="rounded=1;whiteSpace=wrap;html=1;" vertex="1" parent="n8vh_pPtW3KvM1zn7kkg-52">
          <mxGeometry x="166.89" y="550" width="120" height="60" as="geometry" />
        </mxCell>
        <mxCell id="n8vh_pPtW3KvM1zn7kkg-34" value="&amp;lt;get compliancy issuers&amp;gt;" style="endArrow=classic;html=1;rounded=0;exitX=0;exitY=0.5;exitDx=0;exitDy=0;entryX=1;entryY=0.5;entryDx=0;entryDy=0;" edge="1" parent="n8vh_pPtW3KvM1zn7kkg-52" source="n8vh_pPtW3KvM1zn7kkg-9" target="n8vh_pPtW3KvM1zn7kkg-33">
          <mxGeometry x="0.3585" width="50" height="50" relative="1" as="geometry">
            <mxPoint x="406.89" y="590" as="sourcePoint" />
            <mxPoint x="456.89" y="540" as="targetPoint" />
            <Array as="points">
              <mxPoint x="586.89" y="390" />
              <mxPoint x="586.89" y="580" />
            </Array>
            <mxPoint as="offset" />
          </mxGeometry>
        </mxCell>
        <mxCell id="n8vh_pPtW3KvM1zn7kkg-35" value="" style="endArrow=classic;html=1;rounded=0;exitX=0;exitY=0.5;exitDx=0;exitDy=0;entryX=1;entryY=0.5;entryDx=0;entryDy=0;dashed=1;strokeColor=#FF0303;" edge="1" parent="n8vh_pPtW3KvM1zn7kkg-52" source="n8vh_pPtW3KvM1zn7kkg-7" target="n8vh_pPtW3KvM1zn7kkg-2">
          <mxGeometry width="50" height="50" relative="1" as="geometry">
            <mxPoint x="616.89" y="80" as="sourcePoint" />
            <mxPoint x="666.89" y="30" as="targetPoint" />
          </mxGeometry>
        </mxCell>
        <mxCell id="n8vh_pPtW3KvM1zn7kkg-36" value="NaturalParticipant" style="shape=umlActor;verticalLabelPosition=bottom;verticalAlign=top;html=1;outlineConnect=0;" vertex="1" parent="n8vh_pPtW3KvM1zn7kkg-52">
          <mxGeometry x="6.889999999999986" y="270" width="30" height="60" as="geometry" />
        </mxCell>
        <mxCell id="n8vh_pPtW3KvM1zn7kkg-37" value="" style="endArrow=classic;html=1;rounded=0;entryX=0;entryY=0.5;entryDx=0;entryDy=0;" edge="1" parent="n8vh_pPtW3KvM1zn7kkg-52" target="n8vh_pPtW3KvM1zn7kkg-6">
          <mxGeometry width="50" height="50" relative="1" as="geometry">
            <mxPoint x="46.889999999999986" y="300" as="sourcePoint" />
            <mxPoint x="136.89" y="260" as="targetPoint" />
          </mxGeometry>
        </mxCell>
        <mxCell id="n8vh_pPtW3KvM1zn7kkg-38" value="&amp;lt;access portal&amp;gt;" style="edgeLabel;html=1;align=center;verticalAlign=middle;resizable=0;points=[];" vertex="1" connectable="0" parent="n8vh_pPtW3KvM1zn7kkg-37">
          <mxGeometry x="-0.325" y="-5" relative="1" as="geometry">
            <mxPoint x="16" y="-5" as="offset" />
          </mxGeometry>
        </mxCell>
        <mxCell id="n8vh_pPtW3KvM1zn7kkg-46" value="" style="html=1;verticalLabelPosition=bottom;align=center;labelBackgroundColor=#ffffff;verticalAlign=top;strokeWidth=2;strokeColor=#0080F0;shadow=0;dashed=0;shape=mxgraph.ios7.icons.smartphone;" vertex="1" parent="n8vh_pPtW3KvM1zn7kkg-52">
          <mxGeometry y="379.90999999999997" width="43.78" height="80.18" as="geometry" />
        </mxCell>
        <mxCell id="n8vh_pPtW3KvM1zn7kkg-47" value="" style="endArrow=classic;html=1;rounded=0;entryX=0;entryY=0.5;entryDx=0;entryDy=0;" edge="1" parent="n8vh_pPtW3KvM1zn7kkg-52" source="n8vh_pPtW3KvM1zn7kkg-46" target="n8vh_pPtW3KvM1zn7kkg-13">
          <mxGeometry width="50" height="50" relative="1" as="geometry">
            <mxPoint x="96.88999999999999" y="510" as="sourcePoint" />
            <mxPoint x="146.89" y="460" as="targetPoint" />
          </mxGeometry>
        </mxCell>
        <mxCell id="n8vh_pPtW3KvM1zn7kkg-48" value="&amp;lt;scan and present VP&amp;gt;" style="edgeLabel;html=1;align=center;verticalAlign=middle;resizable=0;points=[];" vertex="1" connectable="0" parent="n8vh_pPtW3KvM1zn7kkg-47">
          <mxGeometry x="-0.2015" y="-2" relative="1" as="geometry">
            <mxPoint x="14" y="-2" as="offset" />
          </mxGeometry>
        </mxCell>
        <mxCell id="n8vh_pPtW3KvM1zn7kkg-49" value="" style="endArrow=none;dashed=1;html=1;dashPattern=1 3;strokeWidth=2;rounded=0;exitX=0.569;exitY=-0.024;exitDx=0;exitDy=0;exitPerimeter=0;" edge="1" parent="n8vh_pPtW3KvM1zn7kkg-52" source="n8vh_pPtW3KvM1zn7kkg-46">
          <mxGeometry width="50" height="50" relative="1" as="geometry">
            <mxPoint x="-163.11" y="420" as="sourcePoint" />
            <mxPoint x="21.889999999999986" y="350" as="targetPoint" />
          </mxGeometry>
        </mxCell>
        <mxCell id="n8vh_pPtW3KvM1zn7kkg-70" value="x5u-crt" style="shape=document;whiteSpace=wrap;html=1;boundedLbl=1;" vertex="1" parent="n8vh_pPtW3KvM1zn7kkg-52">
          <mxGeometry x="746.89" y="290" width="80" height="50" as="geometry" />
        </mxCell>
        <mxCell id="n8vh_pPtW3KvM1zn7kkg-55" value="" style="endArrow=none;dashed=1;html=1;dashPattern=1 3;strokeWidth=2;rounded=0;exitX=1;exitY=0.5;exitDx=0;exitDy=0;" edge="1" parent="1" source="n8vh_pPtW3KvM1zn7kkg-54">
          <mxGeometry width="50" height="50" relative="1" as="geometry">
            <mxPoint x="-110" y="770" as="sourcePoint" />
            <mxPoint x="180" y="660" as="targetPoint" />
          </mxGeometry>
        </mxCell>
        <mxCell id="n8vh_pPtW3KvM1zn7kkg-59" value="" style="endArrow=classic;html=1;rounded=0;entryX=1;entryY=0.5;entryDx=0;entryDy=0;" edge="1" parent="1" target="n8vh_pPtW3KvM1zn7kkg-51">
          <mxGeometry width="50" height="50" relative="1" as="geometry">
            <mxPoint x="10" y="500" as="sourcePoint" />
            <mxPoint x="-270" y="620" as="targetPoint" />
          </mxGeometry>
        </mxCell>
        <mxCell id="n8vh_pPtW3KvM1zn7kkg-60" value="&lt;div&gt;&amp;lt;get LegalParticipant &lt;br&gt;&lt;/div&gt;&lt;div&gt;and NaturalParticipant&lt;/div&gt;&lt;div&gt;&amp;nbsp;credential&amp;gt;&lt;br&gt;&lt;/div&gt;" style="edgeLabel;html=1;align=center;verticalAlign=middle;resizable=0;points=[];" vertex="1" connectable="0" parent="n8vh_pPtW3KvM1zn7kkg-59">
          <mxGeometry x="0.3273" y="2" relative="1" as="geometry">
            <mxPoint x="23" y="-2" as="offset" />
          </mxGeometry>
        </mxCell>
        <mxCell id="n8vh_pPtW3KvM1zn7kkg-54" value="&lt;div&gt;Gaia-X &lt;br&gt;&lt;/div&gt;&lt;div&gt;Compliancy Service&lt;/div&gt;" style="rounded=1;whiteSpace=wrap;html=1;" vertex="1" parent="1">
          <mxGeometry x="-25" y="630" width="120" height="60" as="geometry" />
        </mxCell>
        <mxCell id="n8vh_pPtW3KvM1zn7kkg-57" value="" style="endArrow=classic;html=1;rounded=0;exitX=0.431;exitY=0.999;exitDx=0;exitDy=0;exitPerimeter=0;entryX=0.5;entryY=0;entryDx=0;entryDy=0;" edge="1" parent="1" source="n8vh_pPtW3KvM1zn7kkg-46" target="n8vh_pPtW3KvM1zn7kkg-54">
          <mxGeometry width="50" height="50" relative="1" as="geometry">
            <mxPoint x="-200" y="650" as="sourcePoint" />
            <mxPoint x="-150" y="600" as="targetPoint" />
          </mxGeometry>
        </mxCell>
        <mxCell id="n8vh_pPtW3KvM1zn7kkg-58" value="&amp;lt;get compliancy credential&amp;gt;" style="edgeLabel;html=1;align=center;verticalAlign=middle;resizable=0;points=[];" vertex="1" connectable="0" parent="n8vh_pPtW3KvM1zn7kkg-57">
          <mxGeometry x="0.1998" relative="1" as="geometry">
            <mxPoint as="offset" />
          </mxGeometry>
        </mxCell>
        <mxCell id="n8vh_pPtW3KvM1zn7kkg-61" value="Walt-Id" style="rounded=1;whiteSpace=wrap;html=1;" vertex="1" parent="1">
          <mxGeometry x="-400" y="570" width="120" height="60" as="geometry" />
        </mxCell>
        <mxCell id="n8vh_pPtW3KvM1zn7kkg-62" value="did.json" style="shape=document;whiteSpace=wrap;html=1;boundedLbl=1;" vertex="1" parent="1">
          <mxGeometry x="-380" y="690" width="80" height="50" as="geometry" />
        </mxCell>
        <mxCell id="n8vh_pPtW3KvM1zn7kkg-63" value="&amp;lt;publish&amp;gt;" style="endArrow=classic;html=1;rounded=0;exitX=0.5;exitY=1;exitDx=0;exitDy=0;entryX=0.5;entryY=0;entryDx=0;entryDy=0;" edge="1" parent="1" source="n8vh_pPtW3KvM1zn7kkg-61" target="n8vh_pPtW3KvM1zn7kkg-62">
          <mxGeometry width="50" height="50" relative="1" as="geometry">
            <mxPoint x="-400" y="740" as="sourcePoint" />
            <mxPoint x="-350" y="690" as="targetPoint" />
          </mxGeometry>
        </mxCell>
        <mxCell id="n8vh_pPtW3KvM1zn7kkg-64" value="&amp;lt;get credential&amp;gt;" style="endArrow=classic;html=1;rounded=0;exitX=0;exitY=0.5;exitDx=0;exitDy=0;entryX=0.5;entryY=0;entryDx=0;entryDy=0;" edge="1" parent="1" source="n8vh_pPtW3KvM1zn7kkg-51" target="n8vh_pPtW3KvM1zn7kkg-61">
          <mxGeometry width="50" height="50" relative="1" as="geometry">
            <mxPoint x="-200" y="730" as="sourcePoint" />
            <mxPoint x="-150" y="680" as="targetPoint" />
            <Array as="points">
              <mxPoint x="-340" y="500" />
            </Array>
          </mxGeometry>
        </mxCell>
        <mxCell id="n8vh_pPtW3KvM1zn7kkg-66" value="x5u-crt" style="shape=document;whiteSpace=wrap;html=1;boundedLbl=1;" vertex="1" parent="1">
          <mxGeometry x="-480" y="690" width="80" height="50" as="geometry" />
        </mxCell>
        <mxCell id="n8vh_pPtW3KvM1zn7kkg-67" value="" style="endArrow=classic;html=1;rounded=0;exitX=0.5;exitY=1;exitDx=0;exitDy=0;entryX=0.463;entryY=0.98;entryDx=0;entryDy=0;entryPerimeter=0;" edge="1" parent="1" source="n8vh_pPtW3KvM1zn7kkg-54" target="n8vh_pPtW3KvM1zn7kkg-62">
          <mxGeometry width="50" height="50" relative="1" as="geometry">
            <mxPoint x="-130" y="710" as="sourcePoint" />
            <mxPoint x="-80" y="660" as="targetPoint" />
            <Array as="points">
              <mxPoint x="35" y="760" />
              <mxPoint x="-343" y="760" />
            </Array>
          </mxGeometry>
        </mxCell>
        <mxCell id="n8vh_pPtW3KvM1zn7kkg-68" value="" style="endArrow=classic;html=1;rounded=0;exitX=0.5;exitY=1;exitDx=0;exitDy=0;" edge="1" parent="1" source="n8vh_pPtW3KvM1zn7kkg-54" target="n8vh_pPtW3KvM1zn7kkg-66">
          <mxGeometry width="50" height="50" relative="1" as="geometry">
            <mxPoint x="45" y="700" as="sourcePoint" />
            <mxPoint x="-333" y="749" as="targetPoint" />
            <Array as="points">
              <mxPoint x="35" y="760" />
              <mxPoint x="-440" y="760" />
            </Array>
          </mxGeometry>
        </mxCell>
        <mxCell id="n8vh_pPtW3KvM1zn7kkg-69" value="&amp;lt;resolve did and get verification information&amp;gt;" style="edgeLabel;html=1;align=center;verticalAlign=middle;resizable=0;points=[];" vertex="1" connectable="0" parent="n8vh_pPtW3KvM1zn7kkg-68">
          <mxGeometry x="-0.4549" y="-4" relative="1" as="geometry">
            <mxPoint x="-81" as="offset" />
          </mxGeometry>
        </mxCell>
      </root>
    </mxGraphModel>
  </diagram>
</mxfile>
